<svg version="1.1" viewBox="0.0 0.0 960.0 480.0" fill="none" stroke="none" stroke-linecap="square" stroke-miterlimit="10" xmlns:xlink="http://www.w3.org/1999/xlink" xmlns="http://www.w3.org/2000/svg"><clipPath id="p.0"><path d="m0 0l960.0 0l0 480.0l-960.0 0l0 -480.0z" clip-rule="nonzero"/></clipPath><g clip-path="url(#p.0)"><path fill="#000000" fill-opacity="0.0" d="m0 0l960.0 0l0 480.0l-960.0 0z" fill-rule="evenodd"/><path fill="#aeb7ec" d="m72.71065 331.86285l-1.6747742 0.9435425l-1.9902802 0l-1.8841248 -0.7341919l-1.0467377 -1.5715942l-0.5248413 -1.8841248l0.31549072 -1.9873352l42.061157 -113.83786l-101.75763 -67.36566l-1.2089081 -2.2733307l0 -2.5298615l0.984818 -1.7543945l1.8959217 -1.0526428l1.7543912 -0.2801056l121.468735 4.841522l32.873444 -117.52061l1.2619934 -1.6836262l1.8251495 -0.8432865l1.9666901 -0.07076645l1.9666901 0.8432865l1.2619781 1.7543926l32.95897 117.49407l24.449432 -0.86686707l0.13562012 163.66551l-61.32112 -48.096832z" fill-rule="evenodd"/><path stroke="#aeb7ec" stroke-width="1.1233595800524934" stroke-linejoin="round" stroke-linecap="butt" d="m72.71065 331.86285l-1.6747742 0.9435425l-1.9902802 0l-1.8841248 -0.7341919l-1.0467377 -1.5715942l-0.5248413 -1.8841248l0.31549072 -1.9873352l42.061157 -113.83786l-101.75763 -67.36566l-1.2089081 -2.2733307l0 -2.5298615l0.984818 -1.7543945l1.8959217 -1.0526428l1.7543912 -0.2801056l121.468735 4.841522l32.873444 -117.52061l1.2619934 -1.6836262l1.8251495 -0.8432865l1.9666901 -0.07076645l1.9666901 0.8432865l1.2619781 1.7543926l32.95897 117.49407l24.449432 -0.86686707l0.13562012 163.66551l-61.32112 -48.096832z" fill-rule="evenodd"/><path fill="#172b9c" d="m203.03145 24.469868l0 15.6141205c11.024796 0 19.049835 0.6409683 24.075104 1.922924c5.0252533 1.2306671 8.255768 3.7432938 9.691574 7.5378494c1.4357758 3.7432938 2.1536713 9.563343 2.1536713 17.460129l0 228.75073c0 9.43512 -1.2819366 15.973053 -3.8458557 19.6138c-2.5126343 3.589447 -9.127518 5.384186 -19.84465 5.384186l-11.768341 0l0 15.614136l98.76175 0l0 -15.614136l-17.998627 0c-11.332489 0 -18.255035 -1.5639954 -20.76767 -4.691925c-2.5126343 -3.1792297 -3.7689514 -9.947937 -3.7689514 -20.30606l0 -222.59738l0.46151733 0l100.223175 259.90207l19.844635 0l98.30023 -261.3635l0.92300415 0l0 222.59741c0 7.2301636 -0.7178955 12.742523 -2.1536865 16.53711c-1.384491 3.7945862 -4.4611816 6.4097595 -9.2300415 7.84552c-4.7175903 1.384491 -12.434967 2.0767517 -23.1521 2.0767517l0 15.614136l133.29758 0l0 -15.614136c-10.409485 0 -18.126831 -0.6153259 -23.1521 -1.8460083c-5.0252686 -1.2819214 -8.332703 -3.8970947 -9.922302 -7.84552c-1.5896606 -3.9483948 -2.3844604 -9.537689 -2.3844604 -16.767853l0 -227.28934c0 -7.896805 0.69226074 -13.716854 2.0767822 -17.460129c1.435791 -3.7945557 4.743225 -6.3071823 9.922302 -7.5378494c5.2304077 -1.2819557 13.050293 -1.9229317 23.459778 -1.922924l0 -15.6141205l-100.68466 0l-83.60904 218.82846l-1.4614563 0l-84.53204 -218.82846z" fill-rule="evenodd"/><path fill="#172b9c" d="m644.66626 86.45558l42.643982 120.99022l-85.383606 0l41.2782 -120.99022zm0.92303467 -61.918076l-101.14618 270.28586c-2.5126343 6.922516 -5.204773 12.281036 -8.076355 16.075623c-2.8202515 3.7945557 -6.6661377 6.409729 -11.537537 7.84552c-4.87146 1.384491 -11.717102 2.0767517 -20.536926 2.0767517l0 15.614105l98.30023 0l0 -15.614105l-21.306091 0c-6.30719 0 -10.255615 -1.4870911 -11.845215 -4.4611816c-1.5383911 -2.974121 -1.5127563 -7.6147766 0.0769043 -13.921967l26.76654 -78.455185l96.85419 0l27.137085 76.99376c1.8972778 5.691864 2.0510864 10.435059 0.46148682 14.229645c-1.5896606 3.7432556 -5.538025 5.614929 -11.845276 5.614929l-22.229065 0l0 15.614105l135.22052 0l0 -15.614105c-7.8968506 0 -14.050232 -0.53842163 -18.460144 -1.6152649c-4.409912 -1.1281128 -7.871216 -3.4099426 -10.38385 -6.8456116c-2.5126343 -3.486908 -5.0252686 -8.53775 -7.537903 -15.152618l-96.91571 -272.67026z" fill-rule="evenodd"/><path fill="#172b9c" d="m847.26544 23.821035c-32.578613 0 -60.520874 6.1735497 -83.82672 18.520647c-23.305847 12.3470955 -41.057983 30.396675 -53.256348 54.148712c-12.198425 23.752045 -18.297607 52.859444 -18.297607 87.32224c0 32.57849 5.925659 60.297455 17.776917 83.15697c11.900879 22.859497 29.281067 40.165253 52.140686 51.917297c22.859558 11.702484 50.752197 17.55371 83.67792 17.55371c18.247986 0 33.91748 -2.4297485 47.008423 -7.2892456c13.140564 -4.909088 24.124023 -11.305786 32.9505 -19.190063c8.826477 -7.9338684 15.7438965 -16.4628 20.752136 -25.586761c5.0578613 -9.173553 8.950439 -17.727264 11.677734 -25.661133l-12.793396 -5.950424c-2.727295 7.0413055 -6.2232056 14.380142 -10.487671 22.016525c-4.2644653 7.5867615 -9.99176 14.727264 -17.181885 21.421448c-7.140503 6.694214 -15.96698 12.173553 -26.479431 16.438019c-10.51239 4.2644653 -23.231445 6.396698 -38.157104 6.396698c-16.760376 0 -31.016663 -3.7190247 -42.768738 -11.157013c-11.702515 -7.48761 -21.148865 -17.702484 -28.338928 -30.644623c-7.140564 -12.942139 -12.3967285 -27.867722 -15.768677 -44.77681c-3.3223267 -16.909088 -4.9834595 -34.661133 -4.9834595 -53.256165c0 -9.421478 0.6694336 -20.231384 2.0082397 -32.429718c1.3884277 -12.198334 3.9173584 -24.446266 7.586792 -36.743774c3.6694336 -12.347092 9.000061 -23.702461 15.991821 -34.066086c6.9917603 -10.363617 15.96698 -18.743786 26.92572 -25.140472c11.008301 -6.3966904 24.570312 -9.595036 40.686035 -9.595036c13.43811 0 25.165405 2.057846 35.181946 6.1735497c10.066162 4.115692 18.595093 9.7437935 25.586853 16.884285c7.041382 7.1404877 12.619873 15.074371 16.735596 23.801628c4.1157227 8.677689 7.0909424 17.87603 8.925659 27.595024l13.239685 0l-4.6115723 -86.3553l-11.826477 0l-1.8594971 4.5371876c-0.8925781 1.8347054 -2.2562256 3.44627 -4.0909424 4.8347054c-1.8347168 1.3884277 -4.2892456 2.0826416 -7.3636475 2.0826416c-3.96698 0 -9.074402 -1.438015 -15.322388 -4.314045c-6.1983643 -2.925621 -14.256226 -5.7520638 -24.173584 -8.47933c-9.917419 -2.7768612 -22.338928 -4.165287 -37.264587 -4.165287z" fill-rule="evenodd"/><path fill="#000000" fill-opacity="0.0" d="m5.0 353.82672l952.9134 0l0 123.37009l-952.9134 0z" fill-rule="evenodd"/><path fill="#172b9c" d="m193.53537 414.28983l0 9.828125l-83.8125 0l0 -9.828125l83.8125 0zm83.8125 0l0 9.828125l-83.8125 0l0 -9.828125l83.8125 0zm25.379425 30.0l0 -60.984375l23.765625 0q6.96875 0 11.828125 2.640625q4.875 2.640625 7.421875 7.296875q2.5625 4.640625 2.5625 10.65625q0 6.0625 -2.59375 10.671875q-2.59375 4.59375 -7.53125 7.1875q-4.9375 2.59375 -11.96875 2.59375l-15.3125 0l0 -10.0625l13.3125 0q3.84375 0 6.3125 -1.328125q2.484375 -1.328125 3.6875 -3.65625q1.203125 -2.34375 1.203125 -5.40625q0 -3.078125 -1.203125 -5.375q-1.203125 -2.3125 -3.703125 -3.59375q-2.5 -1.296875 -6.34375 -1.296875l-8.96875 0l0 50.65625l-12.46875 0zm70.62317 0l20.828125 -60.984375l16.375 0l21.359375 60.984375l-13.875 0l-9.78125 -29.421875q-1.75 -5.6875 -3.578125 -12.453125q-1.8125 -6.78125 -3.828125 -14.8125l2.75 0q-1.96875 8.0625 -3.671875 14.890625q-1.6875 6.8125 -3.375 12.375l-9.40625 29.421875l-13.796875 0zm13.015625 -14.15625l0 -9.78125l32.53125 0l0 9.78125l-32.53125 0zm72.93671 14.15625l0 -60.984375l23.765625 0q6.96875 0 11.828125 2.46875q4.875 2.453125 7.421875 6.921875q2.5625 4.453125 2.5625 10.46875q0 6.015625 -2.59375 10.375q-2.59375 4.359375 -7.53125 6.671875q-4.9375 2.3125 -11.96875 2.3125l-16.125 0l0 -10.109375l14.125 0q3.84375 0 6.296875 -1.046875q2.453125 -1.046875 3.671875 -3.109375q1.234375 -2.0625 1.234375 -5.09375q0 -3.109375 -1.234375 -5.21875q-1.21875 -2.109375 -3.703125 -3.203125q-2.46875 -1.109375 -6.3125 -1.109375l-8.96875 0l0 50.65625l-12.46875 0zm33.921875 0l-14.859375 -27.75l13.546875 0l15.140625 27.75l-13.828125 0zm38.500427 -50.625l0 -10.359375l49.8125 0l0 10.359375l-18.625 0l0 50.625l-12.515625 0l0 -50.625l-18.671875 0zm97.32263 50.625l0 -22.921875l-22.59375 -38.0625l14.609375 0l10.3125 19.0q1.609375 2.859375 2.828125 5.6875q1.234375 2.828125 2.546875 6.75l-2.75 0q1.265625 -3.96875 2.453125 -6.796875q1.1875 -2.828125 2.703125 -5.640625l9.984375 -19.0l14.578125 0l-22.234375 38.0625l0 22.921875l-12.4375 0zm140.33032 -30.0l0 9.828125l-83.8125 0l0 -9.828125l83.8125 0zm83.8125 0l0 9.828125l-83.8125 0l0 -9.828125l83.8125 0z" fill-rule="nonzero"/></g></svg>